<?xml version="1.0" encoding="utf-8"?>
<!-- Generator: Adobe Illustrator 21.0.0, SVG Export Plug-In . SVG Version: 6.00 Build 0)  -->
<svg version="1.1" id="Layer_1" xmlns="http://www.w3.org/2000/svg" xmlns:xlink="http://www.w3.org/1999/xlink" x="0px" y="0px"
	 viewBox="0 0 182 182" style="enable-background:new 0 0 182 182;" xml:space="preserve">
<style type="text/css">
	.st0{fill:#3A7EA0;}
	.st1{fill:#3BBEFF;}
	.st2{fill:#88D7FF;}
	.st3{enable-background:new    ;}
	.st4{fill:#404040;}
</style>
<g>
	<path class="st0" d="M90.1,0.7c34.9,73.8-37.5,94.6-37.5,123c0,86.5,118.3,65.6,118.3,1.4C170.9,75.3,90.1,0.7,90.1,0.7z"/>
	<path class="st1" d="M87.1,9.2C49.3,48,117.9,108.4,114,135c-12.2,81.2-115.4,34.8-101.6-24.2C23,65.1,87.1,9.2,87.1,9.2z"/>
	<path class="st2" d="M81.9,27.5c23.6,56.6-32.1,69.3-26,112.2c10.4,73.6,108.1,37.7,98.3-16.6C146.6,81,81.9,27.5,81.9,27.5z"/>
</g>
<text transform="matrix(1 0 0 1 7.3342 246.6621)" class="st4" style="font-family:'Raleway-Regular'; font-size:50.2995px;">F</text>
<text transform="matrix(1 0 0 1 34.5342 246.6621)" class="st4" style="font-family:'Raleway-Regular'; font-size:50.2995px;">i</text>
<text transform="matrix(1 0 0 1 43.9342 246.6621)" class="st4" style="font-family:'Raleway-Regular'; font-size:50.2995px; letter-spacing:-1;">r</text>
<text transform="matrix(1 0 0 1 57.8342 246.6621)" class="st4" style="font-family:'Raleway-Regular'; font-size:50.2995px; letter-spacing:-1;">es</text>
<text transform="matrix(1 0 0 1 105.4342 246.6621)" class="st4" style="font-family:'Raleway-Regular'; font-size:50.2995px;">i</text>
<text transform="matrix(1 0 0 1 113.9342 246.6621)" class="st4" style="font-family:'Raleway-Regular'; font-size:50.2995px; letter-spacing:-1;">d</text>
<text transform="matrix(1 0 0 1 142.0342 246.6621)" class="st4" style="font-family:'Raleway-Regular'; font-size:50.2995px;">e</text>
</svg>
